<mxfile host="Electron" agent="Mozilla/5.0 (Windows NT 10.0; Win64; x64) AppleWebKit/537.36 (KHTML, like Gecko) draw.io/28.1.2 Chrome/138.0.7204.243 Electron/37.4.0 Safari/537.36" version="28.1.2">
  <diagram name="Página-1" id="nSUWDhd3Jh8U2nydc0y9">
    <mxGraphModel dx="1505" dy="785" grid="1" gridSize="10" guides="1" tooltips="1" connect="1" arrows="1" fold="1" page="1" pageScale="1" pageWidth="827" pageHeight="1169" background="none" math="0" shadow="0">
      <root>
        <mxCell id="0" />
        <mxCell id="1" parent="0" />
        <mxCell id="0nJel9C-ETceknaJPNfr-2" value="" style="rounded=1;whiteSpace=wrap;html=1;rotation=90;" vertex="1" parent="1">
          <mxGeometry x="322" y="2034" width="224" height="175" as="geometry" />
        </mxCell>
        <mxCell id="k9G5SDqqKV3kDQf599wx-12" value="Usuario" style="shape=umlActor;verticalLabelPosition=bottom;verticalAlign=top;html=1;outlineConnect=0;fontStyle=1;" parent="1" vertex="1">
          <mxGeometry x="174" y="260" width="30" height="60" as="geometry" />
        </mxCell>
        <mxCell id="k9G5SDqqKV3kDQf599wx-13" value="" style="rounded=0;whiteSpace=wrap;html=1;fontStyle=1;" parent="1" vertex="1">
          <mxGeometry x="334" y="90" width="160" height="350" as="geometry" />
        </mxCell>
        <mxCell id="k9G5SDqqKV3kDQf599wx-17" value="Login" style="ellipse;whiteSpace=wrap;html=1;fontStyle=1;" parent="1" vertex="1">
          <mxGeometry x="343" y="240" width="140" height="70" as="geometry" />
        </mxCell>
        <mxCell id="k9G5SDqqKV3kDQf599wx-18" value="Registrarse" style="ellipse;whiteSpace=wrap;html=1;fontStyle=1;" parent="1" vertex="1">
          <mxGeometry x="344" y="140" width="140" height="70" as="geometry" />
        </mxCell>
        <mxCell id="k9G5SDqqKV3kDQf599wx-29" value="LOGIN" style="rounded=0;whiteSpace=wrap;html=1;fontStyle=1;" parent="1" vertex="1">
          <mxGeometry x="354" y="80" width="120" height="30" as="geometry" />
        </mxCell>
        <mxCell id="k9G5SDqqKV3kDQf599wx-36" value="" style="curved=1;endArrow=classic;html=1;rounded=0;exitX=0.5;exitY=0.5;exitDx=0;exitDy=0;exitPerimeter=0;entryX=0;entryY=0.5;entryDx=0;entryDy=0;fontStyle=1;" parent="1" source="k9G5SDqqKV3kDQf599wx-12" target="k9G5SDqqKV3kDQf599wx-18" edge="1">
          <mxGeometry width="50" height="50" relative="1" as="geometry">
            <mxPoint x="464" y="300" as="sourcePoint" />
            <mxPoint x="514" y="250" as="targetPoint" />
            <Array as="points" />
          </mxGeometry>
        </mxCell>
        <mxCell id="k9G5SDqqKV3kDQf599wx-37" value="" style="curved=1;endArrow=classic;html=1;rounded=0;exitX=0.5;exitY=0.5;exitDx=0;exitDy=0;exitPerimeter=0;entryX=0;entryY=0.5;entryDx=0;entryDy=0;fontStyle=1;" parent="1" source="k9G5SDqqKV3kDQf599wx-12" target="k9G5SDqqKV3kDQf599wx-17" edge="1">
          <mxGeometry width="50" height="50" relative="1" as="geometry">
            <mxPoint x="294" y="415" as="sourcePoint" />
            <mxPoint x="449" y="300" as="targetPoint" />
            <Array as="points" />
          </mxGeometry>
        </mxCell>
        <mxCell id="k9G5SDqqKV3kDQf599wx-43" value="" style="curved=1;endArrow=classic;html=1;rounded=0;exitX=0.5;exitY=0.5;exitDx=0;exitDy=0;exitPerimeter=0;entryX=0;entryY=0.5;entryDx=0;entryDy=0;fontStyle=1;" parent="1" source="k9G5SDqqKV3kDQf599wx-12" target="k9G5SDqqKV3kDQf599wx-154" edge="1">
          <mxGeometry width="50" height="50" relative="1" as="geometry">
            <mxPoint x="254" y="330" as="sourcePoint" />
            <mxPoint x="343.99999999999704" y="495" as="targetPoint" />
            <Array as="points" />
          </mxGeometry>
        </mxCell>
        <mxCell id="k9G5SDqqKV3kDQf599wx-44" value="Usuario" style="shape=umlActor;verticalLabelPosition=bottom;verticalAlign=top;html=1;outlineConnect=0;" parent="1" vertex="1">
          <mxGeometry x="144" y="720" width="30" height="60" as="geometry" />
        </mxCell>
        <mxCell id="k9G5SDqqKV3kDQf599wx-45" value="" style="rounded=0;whiteSpace=wrap;html=1;" parent="1" vertex="1">
          <mxGeometry x="334" y="470" width="160" height="620" as="geometry" />
        </mxCell>
        <mxCell id="k9G5SDqqKV3kDQf599wx-47" value="Entrar a&amp;nbsp;ranking" style="ellipse;whiteSpace=wrap;html=1;" parent="1" vertex="1">
          <mxGeometry x="344" y="680" width="140" height="70" as="geometry" />
        </mxCell>
        <mxCell id="k9G5SDqqKV3kDQf599wx-48" value="Entrar a leccion" style="ellipse;whiteSpace=wrap;html=1;" parent="1" vertex="1">
          <mxGeometry x="344" y="600" width="140" height="70" as="geometry" />
        </mxCell>
        <mxCell id="k9G5SDqqKV3kDQf599wx-50" value="Ver lecciones&lt;div&gt;disponibles&lt;/div&gt;" style="ellipse;whiteSpace=wrap;html=1;" parent="1" vertex="1">
          <mxGeometry x="344" y="520" width="140" height="70" as="geometry" />
        </mxCell>
        <mxCell id="k9G5SDqqKV3kDQf599wx-51" value="HOME" style="rounded=0;whiteSpace=wrap;html=1;" parent="1" vertex="1">
          <mxGeometry x="354" y="460" width="120" height="30" as="geometry" />
        </mxCell>
        <mxCell id="k9G5SDqqKV3kDQf599wx-52" value="" style="curved=1;endArrow=classic;html=1;rounded=0;exitX=0.5;exitY=0.5;exitDx=0;exitDy=0;exitPerimeter=0;entryX=0;entryY=0.5;entryDx=0;entryDy=0;" parent="1" source="k9G5SDqqKV3kDQf599wx-44" target="k9G5SDqqKV3kDQf599wx-50" edge="1">
          <mxGeometry width="50" height="50" relative="1" as="geometry">
            <mxPoint x="464" y="680" as="sourcePoint" />
            <mxPoint x="514" y="630" as="targetPoint" />
            <Array as="points">
              <mxPoint x="234" y="600" />
            </Array>
          </mxGeometry>
        </mxCell>
        <mxCell id="k9G5SDqqKV3kDQf599wx-53" value="" style="curved=1;endArrow=classic;html=1;rounded=0;exitX=0.5;exitY=0.5;exitDx=0;exitDy=0;exitPerimeter=0;entryX=0;entryY=0.5;entryDx=0;entryDy=0;" parent="1" source="k9G5SDqqKV3kDQf599wx-44" target="k9G5SDqqKV3kDQf599wx-48" edge="1">
          <mxGeometry width="50" height="50" relative="1" as="geometry">
            <mxPoint x="294" y="795" as="sourcePoint" />
            <mxPoint x="449" y="680" as="targetPoint" />
            <Array as="points">
              <mxPoint x="245" y="670" />
            </Array>
          </mxGeometry>
        </mxCell>
        <mxCell id="k9G5SDqqKV3kDQf599wx-55" value="" style="curved=1;endArrow=classic;html=1;rounded=0;exitX=0.5;exitY=0.5;exitDx=0;exitDy=0;exitPerimeter=0;entryX=0;entryY=0.5;entryDx=0;entryDy=0;" parent="1" source="k9G5SDqqKV3kDQf599wx-44" target="k9G5SDqqKV3kDQf599wx-47" edge="1">
          <mxGeometry width="50" height="50" relative="1" as="geometry">
            <mxPoint x="514" y="815" as="sourcePoint" />
            <mxPoint x="669" y="700" as="targetPoint" />
            <Array as="points">
              <mxPoint x="255" y="720" />
            </Array>
          </mxGeometry>
        </mxCell>
        <mxCell id="k9G5SDqqKV3kDQf599wx-56" value="Entrar a biblioteca de comandos" style="ellipse;whiteSpace=wrap;html=1;" parent="1" vertex="1">
          <mxGeometry x="344" y="760" width="140" height="70" as="geometry" />
        </mxCell>
        <mxCell id="k9G5SDqqKV3kDQf599wx-57" value="" style="curved=1;endArrow=classic;html=1;rounded=0;exitX=0.5;exitY=0.5;exitDx=0;exitDy=0;exitPerimeter=0;entryX=0;entryY=0.5;entryDx=0;entryDy=0;" parent="1" source="k9G5SDqqKV3kDQf599wx-44" target="k9G5SDqqKV3kDQf599wx-56" edge="1">
          <mxGeometry width="50" height="50" relative="1" as="geometry">
            <mxPoint x="254" y="710" as="sourcePoint" />
            <mxPoint x="409" y="755" as="targetPoint" />
            <Array as="points">
              <mxPoint x="225" y="780" />
            </Array>
          </mxGeometry>
        </mxCell>
        <mxCell id="k9G5SDqqKV3kDQf599wx-58" value="Entrar a configuración" style="ellipse;whiteSpace=wrap;html=1;" parent="1" vertex="1">
          <mxGeometry x="344" y="840" width="140" height="70" as="geometry" />
        </mxCell>
        <mxCell id="k9G5SDqqKV3kDQf599wx-59" value="" style="curved=1;endArrow=classic;html=1;rounded=0;exitX=0.5;exitY=0.5;exitDx=0;exitDy=0;exitPerimeter=0;entryX=0;entryY=0.5;entryDx=0;entryDy=0;" parent="1" source="k9G5SDqqKV3kDQf599wx-44" target="k9G5SDqqKV3kDQf599wx-58" edge="1">
          <mxGeometry width="50" height="50" relative="1" as="geometry">
            <mxPoint x="284" y="830" as="sourcePoint" />
            <mxPoint x="439" y="1035" as="targetPoint" />
            <Array as="points">
              <mxPoint x="225" y="830" />
            </Array>
          </mxGeometry>
        </mxCell>
        <mxCell id="k9G5SDqqKV3kDQf599wx-60" value="Usuario" style="shape=umlActor;verticalLabelPosition=bottom;verticalAlign=top;html=1;outlineConnect=0;" parent="1" vertex="1">
          <mxGeometry x="168" y="1366" width="30" height="60" as="geometry" />
        </mxCell>
        <mxCell id="k9G5SDqqKV3kDQf599wx-61" value="" style="rounded=0;whiteSpace=wrap;html=1;" parent="1" vertex="1">
          <mxGeometry x="354" y="1240" width="160" height="640" as="geometry" />
        </mxCell>
        <mxCell id="k9G5SDqqKV3kDQf599wx-66" value="Ingresar comando" style="ellipse;whiteSpace=wrap;html=1;" parent="1" vertex="1">
          <mxGeometry x="364" y="1281" width="140" height="70" as="geometry" />
        </mxCell>
        <mxCell id="k9G5SDqqKV3kDQf599wx-67" value="LECCION" style="rounded=0;whiteSpace=wrap;html=1;" parent="1" vertex="1">
          <mxGeometry x="374" y="1230" width="120" height="30" as="geometry" />
        </mxCell>
        <mxCell id="k9G5SDqqKV3kDQf599wx-68" value="" style="curved=1;endArrow=classic;html=1;rounded=0;exitX=0.5;exitY=0.5;exitDx=0;exitDy=0;exitPerimeter=0;entryX=0;entryY=0.5;entryDx=0;entryDy=0;" parent="1" source="k9G5SDqqKV3kDQf599wx-60" target="k9G5SDqqKV3kDQf599wx-66" edge="1">
          <mxGeometry width="50" height="50" relative="1" as="geometry">
            <mxPoint x="484" y="1525" as="sourcePoint" />
            <mxPoint x="534" y="1475" as="targetPoint" />
            <Array as="points" />
          </mxGeometry>
        </mxCell>
        <mxCell id="k9G5SDqqKV3kDQf599wx-74" value="Siguiente leccion" style="ellipse;whiteSpace=wrap;html=1;" parent="1" vertex="1">
          <mxGeometry x="364" y="1361" width="140" height="70" as="geometry" />
        </mxCell>
        <mxCell id="k9G5SDqqKV3kDQf599wx-75" value="" style="curved=1;endArrow=classic;html=1;rounded=0;exitX=0.5;exitY=0.5;exitDx=0;exitDy=0;exitPerimeter=0;entryX=0;entryY=0.5;entryDx=0;entryDy=0;" parent="1" source="k9G5SDqqKV3kDQf599wx-60" target="k9G5SDqqKV3kDQf599wx-74" edge="1">
          <mxGeometry width="50" height="50" relative="1" as="geometry">
            <mxPoint x="304" y="1675" as="sourcePoint" />
            <mxPoint x="459" y="1880" as="targetPoint" />
            <Array as="points" />
          </mxGeometry>
        </mxCell>
        <mxCell id="k9G5SDqqKV3kDQf599wx-78" value="Salir de leccion" style="ellipse;whiteSpace=wrap;html=1;" parent="1" vertex="1">
          <mxGeometry x="364" y="1451" width="140" height="70" as="geometry" />
        </mxCell>
        <mxCell id="k9G5SDqqKV3kDQf599wx-79" value="" style="curved=1;endArrow=classic;html=1;rounded=0;exitX=0.5;exitY=0.5;exitDx=0;exitDy=0;exitPerimeter=0;entryX=0;entryY=0.5;entryDx=0;entryDy=0;" parent="1" source="k9G5SDqqKV3kDQf599wx-60" target="k9G5SDqqKV3kDQf599wx-78" edge="1">
          <mxGeometry width="50" height="50" relative="1" as="geometry">
            <mxPoint x="294" y="1710" as="sourcePoint" />
            <mxPoint x="479" y="1880" as="targetPoint" />
            <Array as="points">
              <mxPoint x="279" y="1451" />
            </Array>
          </mxGeometry>
        </mxCell>
        <mxCell id="k9G5SDqqKV3kDQf599wx-80" value="Usuario" style="shape=umlActor;verticalLabelPosition=bottom;verticalAlign=top;html=1;outlineConnect=0;" parent="1" vertex="1">
          <mxGeometry x="158" y="2092.5" width="30" height="60" as="geometry" />
        </mxCell>
        <mxCell id="k9G5SDqqKV3kDQf599wx-85" value="Recibir insignia" style="ellipse;whiteSpace=wrap;html=1;" parent="1" vertex="1">
          <mxGeometry x="363" y="2145" width="140" height="70" as="geometry" />
        </mxCell>
        <mxCell id="k9G5SDqqKV3kDQf599wx-86" value="Ver Ranking" style="ellipse;whiteSpace=wrap;html=1;" parent="1" vertex="1">
          <mxGeometry x="364" y="2060" width="140" height="70" as="geometry" />
        </mxCell>
        <mxCell id="k9G5SDqqKV3kDQf599wx-87" value="RANKING" style="rounded=0;whiteSpace=wrap;html=1;" parent="1" vertex="1">
          <mxGeometry x="373" y="2000" width="120" height="30" as="geometry" />
        </mxCell>
        <mxCell id="k9G5SDqqKV3kDQf599wx-89" value="" style="curved=1;endArrow=classic;html=1;rounded=0;exitX=0.5;exitY=0.5;exitDx=0;exitDy=0;exitPerimeter=0;entryX=0;entryY=0.5;entryDx=0;entryDy=0;" parent="1" source="k9G5SDqqKV3kDQf599wx-80" target="k9G5SDqqKV3kDQf599wx-85" edge="1">
          <mxGeometry width="50" height="50" relative="1" as="geometry">
            <mxPoint x="304" y="2222.5" as="sourcePoint" />
            <mxPoint x="459" y="2107.5" as="targetPoint" />
            <Array as="points" />
          </mxGeometry>
        </mxCell>
        <mxCell id="k9G5SDqqKV3kDQf599wx-96" value="Usuario" style="shape=umlActor;verticalLabelPosition=bottom;verticalAlign=top;html=1;outlineConnect=0;" parent="1" vertex="1">
          <mxGeometry x="147" y="2435" width="30" height="60" as="geometry" />
        </mxCell>
        <mxCell id="k9G5SDqqKV3kDQf599wx-97" value="" style="rounded=0;whiteSpace=wrap;html=1;" parent="1" vertex="1">
          <mxGeometry x="344" y="2360" width="160" height="450" as="geometry" />
        </mxCell>
        <mxCell id="k9G5SDqqKV3kDQf599wx-99" value="Ver descripción&lt;div&gt;del comando&lt;/div&gt;" style="ellipse;whiteSpace=wrap;html=1;" parent="1" vertex="1">
          <mxGeometry x="357" y="2480" width="140" height="70" as="geometry" />
        </mxCell>
        <mxCell id="k9G5SDqqKV3kDQf599wx-101" value="Ver comandos&lt;div&gt;disponibles&lt;/div&gt;" style="ellipse;whiteSpace=wrap;html=1;" parent="1" vertex="1">
          <mxGeometry x="357" y="2400" width="140" height="70" as="geometry" />
        </mxCell>
        <mxCell id="k9G5SDqqKV3kDQf599wx-102" value="BIBLIOTECA" style="rounded=0;whiteSpace=wrap;html=1;" parent="1" vertex="1">
          <mxGeometry x="364" y="2350" width="120" height="30" as="geometry" />
        </mxCell>
        <mxCell id="k9G5SDqqKV3kDQf599wx-103" value="" style="curved=1;endArrow=classic;html=1;rounded=0;exitX=0.5;exitY=0.5;exitDx=0;exitDy=0;exitPerimeter=0;entryX=0;entryY=0.5;entryDx=0;entryDy=0;" parent="1" source="k9G5SDqqKV3kDQf599wx-96" target="k9G5SDqqKV3kDQf599wx-101" edge="1">
          <mxGeometry width="50" height="50" relative="1" as="geometry">
            <mxPoint x="467" y="2405" as="sourcePoint" />
            <mxPoint x="517" y="2355" as="targetPoint" />
            <Array as="points" />
          </mxGeometry>
        </mxCell>
        <mxCell id="k9G5SDqqKV3kDQf599wx-104" value="" style="curved=1;endArrow=classic;html=1;rounded=0;exitX=0.5;exitY=0.5;exitDx=0;exitDy=0;exitPerimeter=0;entryX=0;entryY=0.5;entryDx=0;entryDy=0;" parent="1" source="k9G5SDqqKV3kDQf599wx-96" target="k9G5SDqqKV3kDQf599wx-99" edge="1">
          <mxGeometry width="50" height="50" relative="1" as="geometry">
            <mxPoint x="297" y="2520" as="sourcePoint" />
            <mxPoint x="452" y="2405" as="targetPoint" />
            <Array as="points" />
          </mxGeometry>
        </mxCell>
        <mxCell id="k9G5SDqqKV3kDQf599wx-107" value="Usuario" style="shape=umlActor;verticalLabelPosition=bottom;verticalAlign=top;html=1;outlineConnect=0;" parent="1" vertex="1">
          <mxGeometry x="147" y="3007.5" width="30" height="60" as="geometry" />
        </mxCell>
        <mxCell id="k9G5SDqqKV3kDQf599wx-108" value="" style="rounded=0;whiteSpace=wrap;html=1;" parent="1" vertex="1">
          <mxGeometry x="347" y="2880" width="160" height="530" as="geometry" />
        </mxCell>
        <mxCell id="k9G5SDqqKV3kDQf599wx-110" value="Cambiar contraseña" style="ellipse;whiteSpace=wrap;html=1;" parent="1" vertex="1">
          <mxGeometry x="357" y="3010" width="140" height="70" as="geometry" />
        </mxCell>
        <mxCell id="k9G5SDqqKV3kDQf599wx-111" value="Salir de la cuenta" style="ellipse;whiteSpace=wrap;html=1;" parent="1" vertex="1">
          <mxGeometry x="357" y="3170" width="140" height="70" as="geometry" />
        </mxCell>
        <mxCell id="k9G5SDqqKV3kDQf599wx-112" value="Ver datos&lt;div&gt;del usuario&lt;/div&gt;" style="ellipse;whiteSpace=wrap;html=1;" parent="1" vertex="1">
          <mxGeometry x="357" y="2930" width="140" height="70" as="geometry" />
        </mxCell>
        <mxCell id="k9G5SDqqKV3kDQf599wx-113" value="CONFIGURACIÓN" style="rounded=0;whiteSpace=wrap;html=1;" parent="1" vertex="1">
          <mxGeometry x="367" y="2870" width="120" height="30" as="geometry" />
        </mxCell>
        <mxCell id="k9G5SDqqKV3kDQf599wx-115" value="" style="curved=1;endArrow=classic;html=1;rounded=0;exitX=0.5;exitY=0.5;exitDx=0;exitDy=0;exitPerimeter=0;entryX=0;entryY=0.5;entryDx=0;entryDy=0;" parent="1" source="k9G5SDqqKV3kDQf599wx-107" target="k9G5SDqqKV3kDQf599wx-117" edge="1">
          <mxGeometry width="50" height="50" relative="1" as="geometry">
            <mxPoint x="297" y="3092.5" as="sourcePoint" />
            <mxPoint x="452" y="2977.5" as="targetPoint" />
            <Array as="points" />
          </mxGeometry>
        </mxCell>
        <mxCell id="k9G5SDqqKV3kDQf599wx-117" value="Cambiar avatar" style="ellipse;whiteSpace=wrap;html=1;" parent="1" vertex="1">
          <mxGeometry x="357" y="3090" width="140" height="70" as="geometry" />
        </mxCell>
        <mxCell id="k9G5SDqqKV3kDQf599wx-118" value="" style="curved=1;endArrow=classic;html=1;rounded=0;exitX=0.5;exitY=0.5;exitDx=0;exitDy=0;exitPerimeter=0;entryX=0;entryY=0.5;entryDx=0;entryDy=0;" parent="1" source="k9G5SDqqKV3kDQf599wx-107" target="k9G5SDqqKV3kDQf599wx-110" edge="1">
          <mxGeometry width="50" height="50" relative="1" as="geometry">
            <mxPoint x="162" y="3105.5" as="sourcePoint" />
            <mxPoint x="357" y="3192.5" as="targetPoint" />
            <Array as="points" />
          </mxGeometry>
        </mxCell>
        <mxCell id="k9G5SDqqKV3kDQf599wx-121" value="" style="curved=1;endArrow=classic;html=1;rounded=0;exitX=0.5;exitY=0.5;exitDx=0;exitDy=0;exitPerimeter=0;entryX=0;entryY=0.5;entryDx=0;entryDy=0;" parent="1" source="k9G5SDqqKV3kDQf599wx-107" target="k9G5SDqqKV3kDQf599wx-111" edge="1">
          <mxGeometry width="50" height="50" relative="1" as="geometry">
            <mxPoint x="277" y="3110" as="sourcePoint" />
            <mxPoint x="472" y="3197" as="targetPoint" />
            <Array as="points" />
          </mxGeometry>
        </mxCell>
        <mxCell id="k9G5SDqqKV3kDQf599wx-122" value="" style="curved=1;endArrow=classic;html=1;rounded=0;exitX=0.5;exitY=0.5;exitDx=0;exitDy=0;exitPerimeter=0;entryX=0;entryY=0.5;entryDx=0;entryDy=0;" parent="1" source="k9G5SDqqKV3kDQf599wx-107" target="k9G5SDqqKV3kDQf599wx-112" edge="1">
          <mxGeometry width="50" height="50" relative="1" as="geometry">
            <mxPoint x="267" y="3030" as="sourcePoint" />
            <mxPoint x="462" y="3037" as="targetPoint" />
            <Array as="points" />
          </mxGeometry>
        </mxCell>
        <mxCell id="k9G5SDqqKV3kDQf599wx-123" value="CASOS DE USO&lt;div&gt;PENGUIN PATH&lt;/div&gt;" style="html=1;whiteSpace=wrap;" parent="1" vertex="1">
          <mxGeometry x="314" y="10" width="200" height="50" as="geometry" />
        </mxCell>
        <mxCell id="k9G5SDqqKV3kDQf599wx-138" value="Administrador" style="shape=umlActor;verticalLabelPosition=bottom;verticalAlign=top;html=1;outlineConnect=0;" parent="1" vertex="1">
          <mxGeometry x="115.5" y="3657.5" width="30" height="60" as="geometry" />
        </mxCell>
        <mxCell id="k9G5SDqqKV3kDQf599wx-139" value="" style="rounded=0;whiteSpace=wrap;html=1;" parent="1" vertex="1">
          <mxGeometry x="315.5" y="3530" width="160" height="310" as="geometry" />
        </mxCell>
        <mxCell id="k9G5SDqqKV3kDQf599wx-143" value="CRUD&amp;nbsp; USUARIOS" style="ellipse;whiteSpace=wrap;html=1;" parent="1" vertex="1">
          <mxGeometry x="325.5" y="3580" width="140" height="70" as="geometry" />
        </mxCell>
        <mxCell id="k9G5SDqqKV3kDQf599wx-144" value="ADMIN" style="rounded=0;whiteSpace=wrap;html=1;" parent="1" vertex="1">
          <mxGeometry x="335.5" y="3520" width="120" height="30" as="geometry" />
        </mxCell>
        <mxCell id="k9G5SDqqKV3kDQf599wx-149" value="" style="curved=1;endArrow=classic;html=1;rounded=0;exitX=0.5;exitY=0.5;exitDx=0;exitDy=0;exitPerimeter=0;entryX=0;entryY=0.5;entryDx=0;entryDy=0;" parent="1" source="k9G5SDqqKV3kDQf599wx-138" edge="1">
          <mxGeometry width="50" height="50" relative="1" as="geometry">
            <mxPoint x="130.5" y="3755.5" as="sourcePoint" />
            <mxPoint x="325.5" y="3695" as="targetPoint" />
            <Array as="points" />
          </mxGeometry>
        </mxCell>
        <mxCell id="k9G5SDqqKV3kDQf599wx-151" value="" style="curved=1;endArrow=classic;html=1;rounded=0;exitX=0.5;exitY=0.5;exitDx=0;exitDy=0;exitPerimeter=0;entryX=0;entryY=0.5;entryDx=0;entryDy=0;" parent="1" source="k9G5SDqqKV3kDQf599wx-138" target="k9G5SDqqKV3kDQf599wx-163" edge="1">
          <mxGeometry width="50" height="50" relative="1" as="geometry">
            <mxPoint x="245.5" y="3760" as="sourcePoint" />
            <mxPoint x="325.5" y="3855" as="targetPoint" />
            <Array as="points" />
          </mxGeometry>
        </mxCell>
        <mxCell id="k9G5SDqqKV3kDQf599wx-152" value="" style="curved=1;endArrow=classic;html=1;rounded=0;exitX=0.5;exitY=0.5;exitDx=0;exitDy=0;exitPerimeter=0;entryX=0;entryY=0.5;entryDx=0;entryDy=0;" parent="1" source="k9G5SDqqKV3kDQf599wx-138" target="k9G5SDqqKV3kDQf599wx-143" edge="1">
          <mxGeometry width="50" height="50" relative="1" as="geometry">
            <mxPoint x="235.5" y="3680" as="sourcePoint" />
            <mxPoint x="430.5" y="3687" as="targetPoint" />
            <Array as="points" />
          </mxGeometry>
        </mxCell>
        <mxCell id="k9G5SDqqKV3kDQf599wx-154" value="Recuperar contraseña" style="ellipse;whiteSpace=wrap;html=1;fontStyle=1;" parent="1" vertex="1">
          <mxGeometry x="343" y="330" width="140" height="70" as="geometry" />
        </mxCell>
        <mxCell id="k9G5SDqqKV3kDQf599wx-161" value="" style="curved=1;endArrow=classic;html=1;rounded=0;exitX=0.5;exitY=0.5;exitDx=0;exitDy=0;exitPerimeter=0;entryX=0;entryY=0.5;entryDx=0;entryDy=0;" parent="1" source="k9G5SDqqKV3kDQf599wx-80" target="k9G5SDqqKV3kDQf599wx-86" edge="1">
          <mxGeometry width="50" height="50" relative="1" as="geometry">
            <mxPoint x="224" y="2165" as="sourcePoint" />
            <mxPoint x="418" y="2177" as="targetPoint" />
            <Array as="points" />
          </mxGeometry>
        </mxCell>
        <mxCell id="k9G5SDqqKV3kDQf599wx-162" value="CRUD LECCIONES" style="ellipse;whiteSpace=wrap;html=1;" parent="1" vertex="1">
          <mxGeometry x="326.5" y="3657.5" width="140" height="70" as="geometry" />
        </mxCell>
        <mxCell id="k9G5SDqqKV3kDQf599wx-163" value="CRUD COMANDOS" style="ellipse;whiteSpace=wrap;html=1;" parent="1" vertex="1">
          <mxGeometry x="326.5" y="3740" width="140" height="70" as="geometry" />
        </mxCell>
        <mxCell id="k9G5SDqqKV3kDQf599wx-164" value="Aplicación" style="shape=umlActor;verticalLabelPosition=bottom;verticalAlign=top;html=1;outlineConnect=0;" parent="1" vertex="1">
          <mxGeometry x="30" y="4150" width="30" height="60" as="geometry" />
        </mxCell>
        <mxCell id="k9G5SDqqKV3kDQf599wx-165" value="" style="rounded=0;whiteSpace=wrap;html=1;" parent="1" vertex="1">
          <mxGeometry x="272.5" y="3880" width="486" height="610" as="geometry" />
        </mxCell>
        <mxCell id="k9G5SDqqKV3kDQf599wx-166" value="Autenticar usuarios" style="ellipse;whiteSpace=wrap;html=1;" parent="1" vertex="1">
          <mxGeometry x="282.5" y="3930" width="140" height="70" as="geometry" />
        </mxCell>
        <mxCell id="k9G5SDqqKV3kDQf599wx-167" value="APP" style="rounded=0;whiteSpace=wrap;html=1;" parent="1" vertex="1">
          <mxGeometry x="292.5" y="3870" width="120" height="30" as="geometry" />
        </mxCell>
        <mxCell id="k9G5SDqqKV3kDQf599wx-169" value="" style="curved=1;endArrow=classic;html=1;rounded=0;exitX=0.5;exitY=0.5;exitDx=0;exitDy=0;exitPerimeter=0;entryX=0;entryY=0.5;entryDx=0;entryDy=0;fontStyle=1;" parent="1" source="k9G5SDqqKV3kDQf599wx-164" target="k9G5SDqqKV3kDQf599wx-172" edge="1">
          <mxGeometry width="50" height="50" relative="1" as="geometry">
            <mxPoint x="196" y="3800" as="sourcePoint" />
            <mxPoint x="276" y="3895" as="targetPoint" />
            <Array as="points" />
          </mxGeometry>
        </mxCell>
        <mxCell id="k9G5SDqqKV3kDQf599wx-171" value="Verificar comandos" style="ellipse;whiteSpace=wrap;html=1;" parent="1" vertex="1">
          <mxGeometry x="283.5" y="4020" width="140" height="70" as="geometry" />
        </mxCell>
        <mxCell id="k9G5SDqqKV3kDQf599wx-172" value="Actualizar racha y experiencia" style="ellipse;whiteSpace=wrap;html=1;" parent="1" vertex="1">
          <mxGeometry x="278.5" y="4230" width="140" height="70" as="geometry" />
        </mxCell>
        <mxCell id="k9G5SDqqKV3kDQf599wx-173" value="Ver racha y experiencia" style="ellipse;whiteSpace=wrap;html=1;" parent="1" vertex="1">
          <mxGeometry x="342" y="920" width="140" height="70" as="geometry" />
        </mxCell>
        <mxCell id="k9G5SDqqKV3kDQf599wx-176" value="Mostrar contenidos" style="ellipse;whiteSpace=wrap;html=1;" parent="1" vertex="1">
          <mxGeometry x="278.5" y="4120" width="140" height="70" as="geometry" />
        </mxCell>
        <mxCell id="k9G5SDqqKV3kDQf599wx-177" value="" style="curved=1;endArrow=classic;html=1;rounded=0;exitX=0.5;exitY=0.5;exitDx=0;exitDy=0;exitPerimeter=0;entryX=0;entryY=0.5;entryDx=0;entryDy=0;" parent="1" source="k9G5SDqqKV3kDQf599wx-164" target="k9G5SDqqKV3kDQf599wx-176" edge="1">
          <mxGeometry width="50" height="50" relative="1" as="geometry">
            <mxPoint x="232" y="3840" as="sourcePoint" />
            <mxPoint x="428" y="3947" as="targetPoint" />
            <Array as="points" />
          </mxGeometry>
        </mxCell>
        <mxCell id="k9G5SDqqKV3kDQf599wx-181" value="Mostrar lecciones disponibles" style="ellipse;whiteSpace=wrap;html=1;" parent="1" vertex="1">
          <mxGeometry x="558.5" y="4027" width="140" height="70" as="geometry" />
        </mxCell>
        <mxCell id="k9G5SDqqKV3kDQf599wx-182" value="Mostrar comandos disponibles" style="ellipse;whiteSpace=wrap;html=1;" parent="1" vertex="1">
          <mxGeometry x="608.5" y="4120" width="140" height="70" as="geometry" />
        </mxCell>
        <mxCell id="k9G5SDqqKV3kDQf599wx-183" value="Mostrar ranking" style="ellipse;whiteSpace=wrap;html=1;" parent="1" vertex="1">
          <mxGeometry x="558.5" y="4220" width="140" height="70" as="geometry" />
        </mxCell>
        <mxCell id="k9G5SDqqKV3kDQf599wx-184" value="&amp;lt;&amp;lt;include&amp;gt;&amp;gt;" style="curved=1;endArrow=classic;html=1;rounded=0;exitX=1;exitY=0.5;exitDx=0;exitDy=0;entryX=0;entryY=0.5;entryDx=0;entryDy=0;" parent="1" source="k9G5SDqqKV3kDQf599wx-176" target="k9G5SDqqKV3kDQf599wx-181" edge="1">
          <mxGeometry x="0.0234" y="-15" width="50" height="50" relative="1" as="geometry">
            <mxPoint x="468.5" y="4150" as="sourcePoint" />
            <mxPoint x="518.5" y="4100" as="targetPoint" />
            <Array as="points" />
            <mxPoint as="offset" />
          </mxGeometry>
        </mxCell>
        <mxCell id="k9G5SDqqKV3kDQf599wx-185" value="&amp;lt;&amp;lt;include&amp;gt;&amp;gt;" style="curved=1;endArrow=classic;html=1;rounded=0;exitX=1;exitY=0.5;exitDx=0;exitDy=0;entryX=0;entryY=0.5;entryDx=0;entryDy=0;" parent="1" source="k9G5SDqqKV3kDQf599wx-176" target="k9G5SDqqKV3kDQf599wx-182" edge="1">
          <mxGeometry x="0.0526" y="-15" width="50" height="50" relative="1" as="geometry">
            <mxPoint x="438.5" y="4220" as="sourcePoint" />
            <mxPoint x="478.5" y="4120" as="targetPoint" />
            <Array as="points" />
            <mxPoint as="offset" />
          </mxGeometry>
        </mxCell>
        <mxCell id="k9G5SDqqKV3kDQf599wx-186" value="&amp;lt;&amp;lt;include&amp;gt;&amp;gt;" style="curved=1;endArrow=classic;html=1;rounded=0;exitX=1;exitY=0.5;exitDx=0;exitDy=0;entryX=0;entryY=0.5;entryDx=0;entryDy=0;startSize=0;endSize=0;strokeWidth=1;textDirection=rtl;labelPosition=center;verticalLabelPosition=bottom;align=center;verticalAlign=top;spacing=0;" parent="1" source="k9G5SDqqKV3kDQf599wx-176" target="k9G5SDqqKV3kDQf599wx-183" edge="1">
          <mxGeometry x="0.1689" y="-20" width="50" height="50" relative="1" as="geometry">
            <mxPoint x="428.5" y="4230" as="sourcePoint" />
            <mxPoint x="488.5" y="4140" as="targetPoint" />
            <Array as="points" />
            <mxPoint y="1" as="offset" />
          </mxGeometry>
        </mxCell>
        <mxCell id="k9G5SDqqKV3kDQf599wx-187" value="Guardar progreso" style="ellipse;whiteSpace=wrap;html=1;" parent="1" vertex="1">
          <mxGeometry x="278.5" y="4320" width="140" height="70" as="geometry" />
        </mxCell>
        <mxCell id="k9G5SDqqKV3kDQf599wx-188" value="Reanudar desde el&amp;nbsp;&lt;div&gt;último punto&lt;/div&gt;" style="ellipse;whiteSpace=wrap;html=1;" parent="1" vertex="1">
          <mxGeometry x="277.5" y="4400" width="140" height="70" as="geometry" />
        </mxCell>
        <mxCell id="k9G5SDqqKV3kDQf599wx-189" value="" style="curved=1;endArrow=classic;html=1;rounded=0;entryX=0;entryY=0.5;entryDx=0;entryDy=0;exitX=0.5;exitY=0.5;exitDx=0;exitDy=0;exitPerimeter=0;" parent="1" source="k9G5SDqqKV3kDQf599wx-164" target="k9G5SDqqKV3kDQf599wx-187" edge="1">
          <mxGeometry width="50" height="50" relative="1" as="geometry">
            <mxPoint x="82" y="3800" as="sourcePoint" />
            <mxPoint x="423" y="4090" as="targetPoint" />
            <Array as="points" />
          </mxGeometry>
        </mxCell>
        <mxCell id="k9G5SDqqKV3kDQf599wx-190" value="" style="curved=1;endArrow=classic;html=1;rounded=0;exitX=0.5;exitY=0.5;exitDx=0;exitDy=0;exitPerimeter=0;entryX=0;entryY=0.5;entryDx=0;entryDy=0;" parent="1" source="k9G5SDqqKV3kDQf599wx-164" target="k9G5SDqqKV3kDQf599wx-188" edge="1">
          <mxGeometry width="50" height="50" relative="1" as="geometry">
            <mxPoint x="262" y="3950" as="sourcePoint" />
            <mxPoint x="453" y="4110" as="targetPoint" />
            <Array as="points" />
          </mxGeometry>
        </mxCell>
        <mxCell id="V6dG_-SJx1Hyy4RIv4wh-1" value="Iniciar/Renaudar lección&amp;nbsp;" style="ellipse;whiteSpace=wrap;html=1;" parent="1" vertex="1">
          <mxGeometry x="364" y="1541" width="140" height="70" as="geometry" />
        </mxCell>
        <mxCell id="V6dG_-SJx1Hyy4RIv4wh-2" value="Validar solución&amp;nbsp;" style="ellipse;whiteSpace=wrap;html=1;" parent="1" vertex="1">
          <mxGeometry x="364" y="1631" width="140" height="70" as="geometry" />
        </mxCell>
        <mxCell id="V6dG_-SJx1Hyy4RIv4wh-4" value="Ver retroalimentación si fallo" style="ellipse;whiteSpace=wrap;html=1;" parent="1" vertex="1">
          <mxGeometry x="364" y="1711" width="140" height="70" as="geometry" />
        </mxCell>
        <mxCell id="V6dG_-SJx1Hyy4RIv4wh-5" value="Ver retoralimentacion si acertó" style="ellipse;whiteSpace=wrap;html=1;" parent="1" vertex="1">
          <mxGeometry x="366" y="1794" width="140" height="70" as="geometry" />
        </mxCell>
        <mxCell id="V6dG_-SJx1Hyy4RIv4wh-13" value="" style="endArrow=classic;html=1;rounded=0;entryX=0.039;entryY=0.6;entryDx=0;entryDy=0;entryPerimeter=0;exitX=0.467;exitY=0.317;exitDx=0;exitDy=0;exitPerimeter=0;" parent="1" source="k9G5SDqqKV3kDQf599wx-164" target="k9G5SDqqKV3kDQf599wx-171" edge="1">
          <mxGeometry width="50" height="50" relative="1" as="geometry">
            <mxPoint x="105.5" y="4160" as="sourcePoint" />
            <mxPoint x="155.5" y="4110" as="targetPoint" />
          </mxGeometry>
        </mxCell>
        <mxCell id="V6dG_-SJx1Hyy4RIv4wh-14" value="" style="endArrow=classic;html=1;rounded=0;entryX=0;entryY=0.5;entryDx=0;entryDy=0;" parent="1" source="k9G5SDqqKV3kDQf599wx-164" target="k9G5SDqqKV3kDQf599wx-166" edge="1">
          <mxGeometry width="50" height="50" relative="1" as="geometry">
            <mxPoint x="65.5" y="4142" as="sourcePoint" />
            <mxPoint x="115.5" y="4092" as="targetPoint" />
          </mxGeometry>
        </mxCell>
        <mxCell id="V6dG_-SJx1Hyy4RIv4wh-15" value="Reportar Error&amp;nbsp;" style="ellipse;whiteSpace=wrap;html=1;" parent="1" vertex="1">
          <mxGeometry x="357" y="3250" width="140" height="70" as="geometry" />
        </mxCell>
        <mxCell id="V6dG_-SJx1Hyy4RIv4wh-16" value="Eliminar cuenta" style="ellipse;whiteSpace=wrap;html=1;" parent="1" vertex="1">
          <mxGeometry x="358.5" y="3330" width="140" height="70" as="geometry" />
        </mxCell>
        <mxCell id="V6dG_-SJx1Hyy4RIv4wh-17" style="rounded=0;orthogonalLoop=1;jettySize=auto;html=1;entryX=0.021;entryY=0.4;entryDx=0;entryDy=0;entryPerimeter=0;" parent="1" source="k9G5SDqqKV3kDQf599wx-107" target="V6dG_-SJx1Hyy4RIv4wh-15" edge="1">
          <mxGeometry relative="1" as="geometry" />
        </mxCell>
        <mxCell id="V6dG_-SJx1Hyy4RIv4wh-18" style="rounded=0;orthogonalLoop=1;jettySize=auto;html=1;entryX=0;entryY=0.5;entryDx=0;entryDy=0;" parent="1" source="k9G5SDqqKV3kDQf599wx-107" target="V6dG_-SJx1Hyy4RIv4wh-16" edge="1">
          <mxGeometry relative="1" as="geometry" />
        </mxCell>
        <mxCell id="V6dG_-SJx1Hyy4RIv4wh-19" style="rounded=0;orthogonalLoop=1;jettySize=auto;html=1;entryX=0;entryY=0.5;entryDx=0;entryDy=0;" parent="1" source="k9G5SDqqKV3kDQf599wx-60" target="V6dG_-SJx1Hyy4RIv4wh-1" edge="1">
          <mxGeometry relative="1" as="geometry" />
        </mxCell>
        <mxCell id="V6dG_-SJx1Hyy4RIv4wh-21" style="rounded=0;orthogonalLoop=1;jettySize=auto;html=1;entryX=0;entryY=0.5;entryDx=0;entryDy=0;" parent="1" source="k9G5SDqqKV3kDQf599wx-60" target="V6dG_-SJx1Hyy4RIv4wh-4" edge="1">
          <mxGeometry relative="1" as="geometry" />
        </mxCell>
        <mxCell id="V6dG_-SJx1Hyy4RIv4wh-22" style="rounded=0;orthogonalLoop=1;jettySize=auto;html=1;entryX=0;entryY=0.5;entryDx=0;entryDy=0;" parent="1" source="k9G5SDqqKV3kDQf599wx-60" target="V6dG_-SJx1Hyy4RIv4wh-5" edge="1">
          <mxGeometry relative="1" as="geometry" />
        </mxCell>
        <mxCell id="V6dG_-SJx1Hyy4RIv4wh-20" style="rounded=0;orthogonalLoop=1;jettySize=auto;html=1;entryX=0;entryY=0.5;entryDx=0;entryDy=0;" parent="1" source="k9G5SDqqKV3kDQf599wx-60" target="V6dG_-SJx1Hyy4RIv4wh-2" edge="1">
          <mxGeometry relative="1" as="geometry" />
        </mxCell>
        <mxCell id="V6dG_-SJx1Hyy4RIv4wh-24" value="Descargar contenidos" style="ellipse;whiteSpace=wrap;html=1;" parent="1" vertex="1">
          <mxGeometry x="354" y="2560" width="140" height="70" as="geometry" />
        </mxCell>
        <mxCell id="V6dG_-SJx1Hyy4RIv4wh-25" style="rounded=0;orthogonalLoop=1;jettySize=auto;html=1;entryX=0;entryY=0.5;entryDx=0;entryDy=0;" parent="1" source="k9G5SDqqKV3kDQf599wx-96" target="V6dG_-SJx1Hyy4RIv4wh-24" edge="1">
          <mxGeometry relative="1" as="geometry" />
        </mxCell>
        <mxCell id="V6dG_-SJx1Hyy4RIv4wh-26" value="Terminal Interactiva&amp;nbsp;" style="ellipse;whiteSpace=wrap;html=1;" parent="1" vertex="1">
          <mxGeometry x="343" y="1000" width="140" height="70" as="geometry" />
        </mxCell>
        <mxCell id="V6dG_-SJx1Hyy4RIv4wh-27" style="rounded=0;orthogonalLoop=1;jettySize=auto;html=1;entryX=0;entryY=0.5;entryDx=0;entryDy=0;" parent="1" source="k9G5SDqqKV3kDQf599wx-44" target="k9G5SDqqKV3kDQf599wx-173" edge="1">
          <mxGeometry relative="1" as="geometry" />
        </mxCell>
        <mxCell id="V6dG_-SJx1Hyy4RIv4wh-28" style="rounded=0;orthogonalLoop=1;jettySize=auto;html=1;entryX=0;entryY=0.5;entryDx=0;entryDy=0;" parent="1" source="k9G5SDqqKV3kDQf599wx-44" target="V6dG_-SJx1Hyy4RIv4wh-26" edge="1">
          <mxGeometry relative="1" as="geometry" />
        </mxCell>
        <mxCell id="V6dG_-SJx1Hyy4RIv4wh-29" value="Ver progreso" style="ellipse;whiteSpace=wrap;html=1;" parent="1" vertex="1">
          <mxGeometry x="358.5" y="2640" width="140" height="70" as="geometry" />
        </mxCell>
        <mxCell id="V6dG_-SJx1Hyy4RIv4wh-30" style="rounded=0;orthogonalLoop=1;jettySize=auto;html=1;entryX=0.043;entryY=0.614;entryDx=0;entryDy=0;entryPerimeter=0;" parent="1" source="k9G5SDqqKV3kDQf599wx-96" target="V6dG_-SJx1Hyy4RIv4wh-29" edge="1">
          <mxGeometry relative="1" as="geometry" />
        </mxCell>
        <mxCell id="V6dG_-SJx1Hyy4RIv4wh-31" value="Buscar/Filtrar contenido" style="ellipse;whiteSpace=wrap;html=1;" parent="1" vertex="1">
          <mxGeometry x="357" y="2720" width="140" height="70" as="geometry" />
        </mxCell>
        <mxCell id="V6dG_-SJx1Hyy4RIv4wh-32" style="rounded=0;orthogonalLoop=1;jettySize=auto;html=1;entryX=0.029;entryY=0.657;entryDx=0;entryDy=0;entryPerimeter=0;" parent="1" source="k9G5SDqqKV3kDQf599wx-96" target="V6dG_-SJx1Hyy4RIv4wh-31" edge="1">
          <mxGeometry relative="1" as="geometry" />
        </mxCell>
      </root>
    </mxGraphModel>
  </diagram>
</mxfile>
